<?xml version="1.0" standalone="no"?>
<!DOCTYPE svg PUBLIC "-//W3C//DTD SVG 20010904//EN"
 "http://www.w3.org/TR/2001/REC-SVG-20010904/DTD/svg10.dtd">
<svg version="1.0" xmlns="http://www.w3.org/2000/svg"
 width="980.000000pt" height="980.000000pt" viewBox="0 0 980.000000 980.000000"
 preserveAspectRatio="xMidYMid meet">
<metadata>
Created by potrace 1.14, written by Peter Selinger 2001-2017
</metadata>
<g transform="translate(0.000000,980.000000) scale(0.100000,-0.100000)"
fill="#000000" stroke="none">
<path d="M4455 9775 c-275 -49 -479 -111 -705 -214 -566 -258 -997 -716 -1184
-1259 -26 -76 -96 -364 -96 -396 0 -2 -30 -11 -67 -21 -105 -28 -187 -69 -244
-122 -79 -73 -90 -106 -100 -307 -10 -220 -10 -796 0 -1041 10 -222 16 -243
95 -318 63 -61 122 -93 226 -122 l75 -21 17 -169 c94 -932 462 -1641 1058
-2039 181 -121 454 -234 704 -290 59 -13 116 -32 126 -41 10 -9 40 -55 66
-102 34 -60 67 -102 112 -143 l64 -58 172 -7 c94 -4 290 -5 436 -3 263 3 265
3 322 30 79 37 142 98 181 177 32 65 32 67 35 235 4 189 -6 268 -44 332 -34
61 -116 130 -182 154 -68 26 -238 39 -487 39 -402 1 -479 -30 -603 -239 -31
-52 -60 -98 -65 -101 -15 -11 -157 21 -282 63 -552 184 -954 626 -1181 1299
-79 235 -120 437 -144 714 -17 194 -23 1000 -11 1560 13 659 20 714 129 950
99 217 203 372 361 537 268 281 596 473 1004 588 203 58 256 62 674 57 357 -4
371 -5 468 -30 424 -110 782 -307 1060 -583 195 -194 322 -386 426 -646 89
-223 95 -311 105 -1417 l7 -784 45 -28 c101 -64 265 -64 415 0 58 25 149 109
185 171 l27 45 3 643 c4 649 0 736 -33 805 -44 94 -137 161 -279 202 -50 14
-92 27 -94 29 -2 3 -16 64 -32 138 -39 184 -89 330 -164 483 -214 437 -554
770 -1025 1004 -380 190 -763 272 -1255 270 -153 0 -217 -5 -321 -24z"/>
<path d="M4660 9229 c-167 -8 -324 -44 -545 -124 -279 -101 -415 -175 -569
-307 -252 -216 -383 -402 -466 -663 -52 -162 -69 -270 -80 -477 -13 -248 -13
-1309 0 -1588 16 -354 69 -692 147 -935 135 -422 445 -819 790 -1012 65 -36
258 -123 274 -123 4 0 21 24 38 54 80 138 256 232 480 255 129 14 558 14 671
1 127 -14 282 -72 366 -136 17 -13 42 -24 56 -24 57 0 271 182 415 353 228
273 364 594 437 1032 41 244 46 332 52 940 7 647 -7 1293 -31 1440 -51 312
-187 561 -450 821 -113 112 -192 168 -341 242 -306 153 -559 228 -849 252
-138 11 -174 11 -395 -1z"/>
<path d="M3005 3763 c-135 -54 -1099 -469 -1238 -534 -222 -102 -318 -163
-445 -284 -199 -188 -310 -332 -442 -571 -255 -465 -413 -1019 -436 -1540 l-7
-149 29 -34 c37 -44 163 -104 356 -170 718 -244 1649 -388 2993 -462 312 -17
1500 -23 1870 -10 1418 51 2502 207 3293 473 202 67 330 132 356 177 38 67 32
264 -19 567 -121 722 -470 1420 -879 1761 -52 43 -131 100 -177 128 -179 106
-1537 691 -1539 663 0 -2 -5 -66 -9 -143 -25 -372 -181 -823 -406 -1173 l-60
-92 -45 6 c-264 35 -560 168 -800 359 -36 28 -70 54 -76 58 -6 4 -47 -9 -90
-27 -105 -46 -183 -59 -339 -59 -150 1 -241 17 -340 62 l-69 31 -76 -59 c-183
-142 -355 -235 -555 -300 -144 -46 -242 -66 -279 -57 -39 10 -67 44 -141 170
-194 336 -321 727 -346 1070 -5 77 -12 143 -15 148 -7 11 -23 9 -69 -9z m2122
-1669 c136 -66 204 -238 146 -365 -27 -60 -86 -119 -149 -150 -67 -33 -180
-34 -240 -2 -63 34 -97 66 -129 125 -26 46 -30 63 -30 128 1 138 79 250 205
291 42 14 141 1 197 -27z m-1 -906 c59 -27 113 -82 142 -146 33 -73 29 -177
-11 -245 -83 -140 -256 -196 -382 -123 -168 99 -206 337 -73 462 86 82 217
103 324 52z"/>
</g>
</svg>
